<svg width="22" height="22" viewBox="0 0 22 22" fill="none" xmlns="http://www.w3.org/2000/svg">
<path d="M3.5 7.87598H18.5C19.163 7.87598 19.7989 8.08095 20.2678 8.44582C20.7366 8.81068 21 9.30553 21 9.82153V16.6278C21 17.1387 20.8707 17.6446 20.6193 18.1165C20.368 18.5885 19.9997 19.0173 19.5354 19.3785C19.071 19.7396 18.5198 20.026 17.9132 20.2214C17.3066 20.4167 16.6565 20.5171 16 20.5168H6C4.67439 20.5168 3.40303 20.1071 2.46542 19.3779C1.52782 18.6486 1.00072 17.6594 1 16.6278V9.82153C0.999823 9.56599 1.06437 9.31294 1.18994 9.07683C1.31551 8.84073 1.49966 8.6262 1.73184 8.44551C1.96402 8.26482 2.23969 8.12152 2.54308 8.02379C2.84648 7.92607 3.17165 7.87584 3.5 7.87598Z" stroke="black" stroke-width="1.5" stroke-linecap="round" stroke-linejoin="round"/>
<path d="M4.75001 7.87596V5.93146C4.74824 5.29204 4.90862 4.65864 5.22199 4.06755C5.53535 3.47646 5.99552 2.9393 6.57614 2.48687C7.15675 2.03444 7.84639 1.67563 8.60553 1.431C9.36466 1.18636 10.1784 1.06073 11 1.06128C11.8214 1.06156 12.6346 1.18776 13.3932 1.43269C14.1519 1.67761 14.8411 2.03646 15.4215 2.48872C16.0019 2.94099 16.4621 3.47781 16.7759 4.06853C17.0896 4.65924 17.2507 5.29228 17.25 5.93146V7.87701" stroke="black" stroke-width="1.5" stroke-linecap="round" stroke-linejoin="round"/>
</svg>
