<svg width="25" height="26" viewBox="0 0 25 26" fill="none" xmlns="http://www.w3.org/2000/svg">
<path d="M23.6206 0.927734H1.37938C0.617571 0.927734 0 1.54397 0 2.30413V24.4972C0 25.2573 0.617571 25.8736 1.37938 25.8736H23.6206C24.3824 25.8736 25 25.2573 25 24.4972V2.30413C25 1.54397 24.3824 0.927734 23.6206 0.927734Z" fill="#3D5A98"/>
<path d="M17.2475 25.8713V16.2112H20.4963L20.9822 12.4467H17.2475V10.0438C17.2475 8.95407 17.5517 8.21001 19.1169 8.21001H21.1152V4.83753C20.1476 4.73708 19.1752 4.68923 18.2023 4.6942C15.3252 4.6942 13.3438 6.44367 13.3438 9.67072V12.4467H10.095V16.2112H13.3438V25.8713H17.2475Z" fill="white"/>
</svg>
