<svg width="25" height="26" viewBox="0 0 25 26" fill="none" xmlns="http://www.w3.org/2000/svg">
<path d="M19.1406 0.852051H5.85938C2.62333 0.852051 0 3.4697 0 6.69873V19.9512C0 23.1802 2.62333 25.7979 5.85938 25.7979H19.1406C22.3767 25.7979 25 23.1802 25 19.9512V6.69873C25 3.4697 22.3767 0.852051 19.1406 0.852051Z" fill="url(#paint0_radial_31_1130)"/>
<path d="M19.1406 0.852051H5.85938C2.62333 0.852051 0 3.4697 0 6.69873V19.9512C0 23.1802 2.62333 25.7979 5.85938 25.7979H19.1406C22.3767 25.7979 25 23.1802 25 19.9512V6.69873C25 3.4697 22.3767 0.852051 19.1406 0.852051Z" fill="url(#paint1_radial_31_1130)"/>
<path d="M12.5009 3.58057C9.84873 3.58057 9.51582 3.59216 8.47422 3.63942C7.43457 3.68698 6.7249 3.85117 6.104 4.09215C5.46162 4.34102 4.9168 4.67399 4.37402 5.21578C3.83076 5.75748 3.49707 6.30112 3.24688 6.94182C3.00469 7.56157 2.83994 8.26999 2.79316 9.3069C2.74658 10.3463 2.73438 10.6786 2.73438 13.3251C2.73438 15.9716 2.74609 16.3027 2.79336 17.3421C2.84121 18.3795 3.00576 19.0876 3.24707 19.7072C3.49668 20.3482 3.83037 20.8918 4.37334 21.4334C4.91602 21.9755 5.46084 22.3092 6.10273 22.5581C6.72412 22.7991 7.43389 22.9633 8.47334 23.0108C9.51504 23.0581 9.84766 23.0697 12.4997 23.0697C15.1521 23.0697 15.484 23.0581 16.5256 23.0108C17.5652 22.9633 18.2757 22.7991 18.8971 22.5581C19.5392 22.3092 20.0832 21.9755 20.6258 21.4334C21.169 20.8918 21.5026 20.3482 21.7529 19.7075C21.993 19.0876 22.1578 18.3793 22.2066 17.3423C22.2534 16.3029 22.2656 15.9716 22.2656 13.3251C22.2656 10.6786 22.2534 10.3465 22.2066 9.3071C22.1578 8.2697 21.993 7.56167 21.7529 6.94211C21.5026 6.30112 21.169 5.75748 20.6258 5.21578C20.0826 4.6738 19.5394 4.34083 18.8965 4.09225C18.2739 3.85117 17.5639 3.68688 16.5242 3.63942C15.4825 3.59216 15.1509 3.58057 12.4979 3.58057H12.5009ZM11.6248 5.33662C11.8849 5.33623 12.175 5.33662 12.5009 5.33662C15.1084 5.33662 15.4174 5.34597 16.4471 5.39265C17.3992 5.43611 17.916 5.59484 18.2603 5.72825C18.716 5.90482 19.0409 6.11598 19.3825 6.45713C19.7243 6.79819 19.9358 7.12297 20.1133 7.57775C20.247 7.92075 20.4062 8.43643 20.4496 9.38651C20.4964 10.4138 20.5065 10.7223 20.5065 13.3229C20.5065 15.9235 20.4964 16.2321 20.4496 17.2593C20.4061 18.2093 20.247 18.725 20.1133 19.0681C19.9363 19.5229 19.7243 19.8467 19.3825 20.1876C19.0407 20.5286 18.7162 20.7397 18.2603 20.9164C17.9164 21.0503 17.3992 21.2087 16.4471 21.2522C15.4176 21.2988 15.1084 21.309 12.5009 21.309C9.89326 21.309 9.58418 21.2988 8.55478 21.2522C7.60264 21.2083 7.08584 21.0496 6.74131 20.9162C6.28564 20.7395 5.96006 20.5284 5.61826 20.1874C5.27646 19.8463 5.06494 19.5223 4.8875 19.0673C4.75381 18.7242 4.59453 18.2086 4.55117 17.2585C4.50439 16.2312 4.49502 15.9227 4.49502 13.3205C4.49502 10.7183 4.50439 10.4113 4.55117 9.38408C4.59473 8.43399 4.75381 7.91831 4.8875 7.57482C5.06455 7.12005 5.27646 6.79527 5.61836 6.45421C5.96016 6.11315 6.28564 5.90199 6.74141 5.72503C7.08564 5.59104 7.60264 5.4327 8.55478 5.38904C9.45566 5.34841 9.80479 5.33623 11.6248 5.33418V5.33662ZM17.7138 6.95459C17.0668 6.95459 16.5419 7.47787 16.5419 8.12353C16.5419 8.7691 17.0668 9.29287 17.7138 9.29287C18.3607 9.29287 18.8856 8.7691 18.8856 8.12353C18.8856 7.47796 18.3607 6.9542 17.7138 6.9542V6.95459ZM12.5009 8.32086C9.73135 8.32086 7.48584 10.5615 7.48584 13.3251C7.48584 16.0888 9.73135 18.3283 12.5009 18.3283C15.2705 18.3283 17.5152 16.0888 17.5152 13.3251C17.5152 10.5616 15.2703 8.32086 12.5007 8.32086H12.5009ZM12.5009 10.0769C14.2986 10.0769 15.7562 11.5311 15.7562 13.3251C15.7562 15.119 14.2986 16.5733 12.5009 16.5733C10.703 16.5733 9.2457 15.119 9.2457 13.3251C9.2457 11.5311 10.703 10.0769 12.5009 10.0769Z" fill="white"/>
<defs>
<radialGradient id="paint0_radial_31_1130" cx="0" cy="0" r="1" gradientUnits="userSpaceOnUse" gradientTransform="translate(6.64062 27.7192) rotate(-90) scale(24.7232 23.0444)">
<stop stop-color="#FFDD55"/>
<stop offset="0.1" stop-color="#FFDD55"/>
<stop offset="0.5" stop-color="#FF543E"/>
<stop offset="1" stop-color="#C837AB"/>
</radialGradient>
<radialGradient id="paint1_radial_31_1130" cx="0" cy="0" r="1" gradientUnits="userSpaceOnUse" gradientTransform="translate(-4.1876 2.64903) rotate(78.6571) scale(11.0523 45.6493)">
<stop stop-color="#3771C8"/>
<stop offset="0.128" stop-color="#3771C8"/>
<stop offset="1" stop-color="#6600FF" stop-opacity="0"/>
</radialGradient>
</defs>
</svg>
