<svg width="20" height="20" viewBox="0 0 20 20" fill="none" xmlns="http://www.w3.org/2000/svg">
<path d="M18.4444 19.5168L11.4444 12.7073C10.8889 13.1397 10.25 13.482 9.52778 13.7342C8.80556 13.9864 8.03704 14.1125 7.22222 14.1125C5.2037 14.1125 3.49556 13.4322 2.09778 12.0718C0.700001 10.7114 0.000741329 9.04971 5.8789e-07 7.08687C-0.000740153 5.12403 0.698519 3.46239 2.09778 2.10194C3.49704 0.741501 5.20519 0.0612793 7.22222 0.0612793C9.23926 0.0612793 10.9478 0.741501 12.3478 2.10194C13.7478 3.46239 14.4467 5.12403 14.4444 7.08687C14.4444 7.8795 14.3148 8.6271 14.0556 9.32966C13.7963 10.0322 13.4444 10.6537 13 11.1941L20 18.0036L18.4444 19.5168ZM7.22222 11.9507C8.61111 11.9507 9.79185 11.478 10.7644 10.5327C11.737 9.58726 12.223 8.43867 12.2222 7.08687C12.2215 5.73508 11.7356 4.58684 10.7644 3.64217C9.79333 2.6975 8.61259 2.22444 7.22222 2.223C5.83185 2.22156 4.65148 2.69462 3.68111 3.64217C2.71074 4.58972 2.22445 5.73796 2.22222 7.08687C2.22 8.43579 2.7063 9.58438 3.68111 10.5327C4.65593 11.4809 5.8363 11.9536 7.22222 11.9507Z" fill="black"/>
</svg>
