<svg width="20" height="21" viewBox="0 0 20 21" fill="none" xmlns="http://www.w3.org/2000/svg">
<path d="M10 0.848267C11.3261 0.848267 12.5979 1.36071 13.5355 2.27286C14.4732 3.18501 15 4.42216 15 5.71214C15 7.00212 14.4732 8.23926 13.5355 9.15142C12.5979 10.0636 11.3261 10.576 10 10.576C8.67392 10.576 7.40215 10.0636 6.46447 9.15142C5.52678 8.23926 5 7.00212 5 5.71214C5 4.42216 5.52678 3.18501 6.46447 2.27286C7.40215 1.36071 8.67392 0.848267 10 0.848267ZM10 3.2802C9.33696 3.2802 8.70107 3.53642 8.23223 3.9925C7.76339 4.44858 7.5 5.06715 7.5 5.71214C7.5 6.35713 7.76339 6.9757 8.23223 7.43178C8.70107 7.88785 9.33696 8.14407 10 8.14407C10.663 8.14407 11.2989 7.88785 11.7678 7.43178C12.2366 6.9757 12.5 6.35713 12.5 5.71214C12.5 5.06715 12.2366 4.44858 11.7678 3.9925C11.2989 3.53642 10.663 3.2802 10 3.2802ZM10 11.792C13.3375 11.792 20 13.4092 20 16.6558V20.3038H0V16.6558C0 13.4092 6.6625 11.792 10 11.792ZM10 14.1023C6.2875 14.1023 2.375 15.8776 2.375 16.6558V17.9934H17.625V16.6558C17.625 15.8776 13.7125 14.1023 10 14.1023Z" fill="black"/>
</svg>
