<svg width="25" height="25" viewBox="0 0 25 25" fill="none" xmlns="http://www.w3.org/2000/svg">
<path d="M3.57143 0C1.60156 0 0 1.59809 0 3.56369V21.3821C0 23.3477 1.60156 24.9458 3.57143 24.9458H21.4286C23.3984 24.9458 25 23.3477 25 21.3821V3.56369C25 1.59809 23.3984 0 21.4286 0H3.57143ZM20.1507 4.67734L14.3583 11.2813L21.1719 20.2685H15.8371L11.6629 14.8172L6.88058 20.2685H4.22991L10.4241 13.2024L3.88951 4.67734H9.35826L13.1362 9.66094L17.5 4.67734H20.1507ZM18.0413 18.6871L8.56027 6.17521H6.98103L16.5681 18.6871H18.0357H18.0413Z" fill="white"/>
</svg>
