<svg width="30" height="26" viewBox="0 0 30 26" fill="none" xmlns="http://www.w3.org/2000/svg">
<path d="M29.3379 4.59105C29.1659 3.83901 28.8302 3.1534 28.3644 2.60249C27.8985 2.05158 27.3188 1.6546 26.6829 1.45106C24.3548 0.700195 14.985 0.700195 14.985 0.700195C14.985 0.700195 5.6148 0.722924 3.28672 1.47379C2.65079 1.67734 2.07105 2.07434 1.60522 2.62528C1.13939 3.17621 0.803734 3.86185 0.631674 4.61392C-0.0725178 9.5058 -0.345686 16.9599 0.65101 21.6561C0.823088 22.4081 1.15875 23.0937 1.62458 23.6446C2.09041 24.1956 2.67014 24.5925 3.30605 24.7961C5.63414 25.5469 15.0041 25.5469 15.0041 25.5469C15.0041 25.5469 24.374 25.5469 26.702 24.7961C27.3379 24.5926 27.9177 24.1956 28.3835 23.6447C28.8494 23.0938 29.1851 22.4081 29.3572 21.6561C30.0999 16.7573 30.3288 9.30776 29.3379 4.59105Z" fill="#FF0000"/>
<path d="M12.0027 18.4474L19.7756 13.1231L12.0027 7.79883V18.4474Z" fill="white"/>
</svg>
