<svg width="25" height="26" viewBox="0 0 25 26" fill="none" xmlns="http://www.w3.org/2000/svg">
<path d="M3.57143 0.208496C1.60156 0.208496 0 1.84136 0 3.84972V22.0558C0 24.0642 1.60156 25.6971 3.57143 25.6971H21.4286C23.3984 25.6971 25 24.0642 25 22.0558V3.84972C25 1.84136 23.3984 0.208496 21.4286 0.208496H3.57143ZM20.1507 4.9876L14.3583 11.7352L21.1719 20.918H15.8371L11.6629 15.348L6.88058 20.918H4.22991L10.4241 13.6981L3.88951 4.9876H9.35826L13.1362 10.0796L17.5 4.9876H20.1507ZM18.0413 19.3022L8.56027 6.51805H6.98103L16.5681 19.3022H18.0357H18.0413Z" fill="white"/>
</svg>
