<svg width="25" height="26" viewBox="0 0 25 26" fill="none" xmlns="http://www.w3.org/2000/svg">
<path d="M23.6206 0H1.37938C0.617571 0 0 0.62964 0 1.40634V24.0822C0 24.8589 0.617571 25.4886 1.37938 25.4886H23.6206C24.3824 25.4886 25 24.8589 25 24.0822V1.40634C25 0.62964 24.3824 0 23.6206 0Z" fill="#3D5A98"/>
<path d="M17.2475 25.4863V15.6161H20.4963L20.9822 11.7697H17.2475V9.31449C17.2475 8.20105 17.5517 7.44081 19.1169 7.44081H21.1152V3.99495C20.1476 3.89232 19.1752 3.84343 18.2023 3.8485C15.3252 3.8485 13.3438 5.63604 13.3438 8.93329V11.7697H10.095V15.6161H13.3438V25.4863H17.2475Z" fill="white"/>
</svg>
