<svg width="25" height="26" viewBox="0 0 25 26" fill="none" xmlns="http://www.w3.org/2000/svg">
<path d="M19.1406 0H5.85938C2.62333 0 0 2.6746 0 5.97388V19.5147C0 22.814 2.62333 25.4886 5.85938 25.4886H19.1406C22.3767 25.4886 25 22.814 25 19.5147V5.97388C25 2.6746 22.3767 0 19.1406 0Z" fill="url(#paint0_radial_79_607)"/>
<path d="M19.1406 0H5.85938C2.62333 0 0 2.6746 0 5.97388V19.5147C0 22.814 2.62333 25.4886 5.85938 25.4886H19.1406C22.3767 25.4886 25 22.814 25 19.5147V5.97388C25 2.6746 22.3767 0 19.1406 0Z" fill="url(#paint1_radial_79_607)"/>
<path d="M12.5009 2.78809C9.84873 2.78809 9.51582 2.79993 8.47422 2.84822C7.43457 2.89681 6.7249 3.06458 6.104 3.3108C5.46162 3.56509 4.9168 3.9053 4.37402 4.45888C3.83076 5.01236 3.49707 5.56783 3.24688 6.22247C3.00469 6.8557 2.83994 7.57954 2.79316 8.63901C2.74658 9.70106 2.73438 10.0406 2.73438 12.7447C2.73438 15.4487 2.74609 15.7871 2.79336 16.849C2.84121 17.909 3.00576 18.6325 3.24707 19.2655C3.49668 19.9205 3.83037 20.476 4.37334 21.0293C4.91602 21.5832 5.46084 21.9242 6.10273 22.1785C6.72412 22.4247 7.43389 22.5925 8.47334 22.6411C9.51504 22.6894 9.84766 22.7012 12.4997 22.7012C15.1521 22.7012 15.484 22.6894 16.5256 22.6411C17.5652 22.5925 18.2757 22.4247 18.8971 22.1785C19.5392 21.9242 20.0832 21.5832 20.6258 21.0293C21.169 20.476 21.5026 19.9205 21.7529 19.2658C21.993 18.6325 22.1578 17.9088 22.2066 16.8492C22.2534 15.7873 22.2656 15.4487 22.2656 12.7447C22.2656 10.0406 22.2534 9.70126 22.2066 8.63921C22.1578 7.57924 21.993 6.8558 21.7529 6.22277C21.5026 5.56783 21.169 5.01236 20.6258 4.45888C20.0826 3.9051 19.5394 3.56489 18.8965 3.3109C18.2739 3.06458 17.5639 2.89671 16.5242 2.84822C15.4825 2.79993 15.1509 2.78809 12.4979 2.78809H12.5009ZM11.6248 4.58234C11.8849 4.58194 12.175 4.58234 12.5009 4.58234C15.1084 4.58234 15.4174 4.5919 16.4471 4.63959C17.3992 4.684 17.916 4.84619 18.2603 4.98249C18.716 5.1629 19.0409 5.37866 19.3825 5.72724C19.7243 6.07571 19.9358 6.40756 20.1133 6.87223C20.247 7.2227 20.4062 7.7496 20.4496 8.72035C20.4964 9.76996 20.5065 10.0852 20.5065 12.7424C20.5065 15.3996 20.4964 15.7149 20.4496 16.7644C20.4061 17.7351 20.247 18.262 20.1133 18.6126C19.9363 19.0773 19.7243 19.4081 19.3825 19.7564C19.0407 20.1049 18.7162 20.3205 18.2603 20.501C17.9164 20.638 17.3992 20.7997 16.4471 20.8441C15.4176 20.8918 15.1084 20.9022 12.5009 20.9022C9.89326 20.9022 9.58418 20.8918 8.55478 20.8441C7.60264 20.7993 7.08584 20.6372 6.74131 20.5008C6.28564 20.3203 5.96006 20.1047 5.61826 19.7562C5.27646 19.4077 5.06494 19.0767 4.8875 18.6118C4.75381 18.2612 4.59453 17.7343 4.55117 16.7636C4.50439 15.714 4.49502 15.3988 4.49502 12.7399C4.49502 10.0811 4.50439 9.76747 4.55117 8.71786C4.59473 7.74711 4.75381 7.22021 4.8875 6.86924C5.06455 6.40458 5.27646 6.07273 5.61836 5.72425C5.96016 5.37577 6.28564 5.16002 6.74141 4.97921C7.08564 4.84231 7.60264 4.68051 8.55478 4.63591C9.45566 4.59439 9.80479 4.58194 11.6248 4.57985V4.58234ZM17.7138 6.23551C17.0668 6.23551 16.5419 6.77018 16.5419 7.42989C16.5419 8.08951 17.0668 8.62467 17.7138 8.62467C18.3607 8.62467 18.8856 8.08951 18.8856 7.42989C18.8856 6.77028 18.3607 6.23512 17.7138 6.23512V6.23551ZM12.5009 7.63151C9.73135 7.63151 7.48584 9.9209 7.48584 12.7447C7.48584 15.5684 9.73135 17.8567 12.5009 17.8567C15.2705 17.8567 17.5152 15.5684 17.5152 12.7447C17.5152 9.921 15.2703 7.63151 12.5007 7.63151H12.5009ZM12.5009 9.42577C14.2986 9.42577 15.7562 10.9116 15.7562 12.7447C15.7562 14.5775 14.2986 16.0635 12.5009 16.0635C10.703 16.0635 9.2457 14.5775 9.2457 12.7447C9.2457 10.9116 10.703 9.42577 12.5009 9.42577Z" fill="white"/>
<defs>
<radialGradient id="paint0_radial_79_607" cx="0" cy="0" r="1" gradientUnits="userSpaceOnUse" gradientTransform="translate(6.64062 27.4517) rotate(-90) scale(25.2611 23.0444)">
<stop stop-color="#FFDD55"/>
<stop offset="0.1" stop-color="#FFDD55"/>
<stop offset="0.5" stop-color="#FF543E"/>
<stop offset="1" stop-color="#C837AB"/>
</radialGradient>
<radialGradient id="paint1_radial_79_607" cx="0" cy="0" r="1" gradientUnits="userSpaceOnUse" gradientTransform="translate(-4.1876 1.83607) rotate(78.8925) scale(11.2836 45.6865)">
<stop stop-color="#3771C8"/>
<stop offset="0.128" stop-color="#3771C8"/>
<stop offset="1" stop-color="#6600FF" stop-opacity="0"/>
</radialGradient>
</defs>
</svg>
