<svg width="150" height="41" viewBox="0 0 150 41" fill="none" xmlns="http://www.w3.org/2000/svg">
<path fill-rule="evenodd" clip-rule="evenodd" d="M132.339 31.927C133.646 31.89 134.767 31.504 135.474 30.54C136.458 29.194 137.302 27.743 138.136 26.298C138.311 25.996 138.183 25.523 138.195 25.128C137.8 25.253 137.306 25.27 137.025 25.521C135.021 27.314 133.756 29.643 132.339 31.927ZM145.718 26.288C145.593 26.458 145.467 26.628 145.343 26.8C143.906 28.784 142.476 30.774 141.027 32.75C140.663 33.246 140.302 33.686 140.315 34.383C140.322 34.77 140.056 35.266 139.753 35.533C139.186 36.033 138.502 36.399 137.868 36.823C137.714 36.925 137.42 37.084 137.437 37.137C137.654 37.789 137.824 38.488 138.197 39.05C138.511 39.523 139.178 39.56 139.655 39.272C140.305 38.879 140.967 38.43 141.452 37.862C142.889 36.176 143.763 34.172 144.502 32.11C145.172 30.24 145.717 28.343 145.718 26.288ZM39.4519 38.661C39.4709 39.349 39.8199 39.661 40.3919 39.308C41.1669 38.828 41.9529 38.26 42.5099 37.555C44.9819 34.428 47.1239 31.087 48.7279 27.431C48.9559 26.911 49.0999 26.349 49.2229 25.793C49.2669 25.589 49.2069 25.259 49.0659 25.147C48.9269 25.039 48.5619 25.048 48.4049 25.158C47.7919 25.587 47.1499 26.01 46.6479 26.553C43.7439 29.697 41.3949 33.202 39.8479 37.203C39.6679 37.67 39.5819 38.174 39.4519 38.661ZM68.9819 38.401C68.9339 39.32 69.2659 39.616 69.8569 39.278C70.5529 38.881 71.2529 38.388 71.7549 37.777C74.4059 34.554 76.5979 31.039 78.2769 27.22C78.46 26.7956 78.5916 26.3508 78.6689 25.895C78.7139 25.641 78.6819 25.195 78.5429 25.129C78.3229 25.023 77.9169 25.071 77.7059 25.217C77.1259 25.619 76.5499 26.052 76.0759 26.567C73.2489 29.633 70.9729 33.057 69.4079 36.924C69.1859 37.47 69.0779 38.061 68.9819 38.4V38.401ZM79.1109 8.26403C78.9019 8.61803 78.7759 8.84403 78.6409 9.06403C73.4589 17.441 68.2659 25.809 63.1089 34.201C62.4319 35.303 61.9389 36.518 61.3689 37.685C61.2829 37.862 61.1909 38.065 61.1989 38.251C61.2129 38.586 61.1889 39.072 61.3859 39.214C61.6229 39.385 62.1629 39.4 62.4169 39.241C63.0829 38.823 63.7929 38.37 64.2549 37.759C65.7714 35.7498 67.2339 33.7004 68.6409 31.613C70.5149 28.843 72.7139 26.428 75.7779 24.936C76.4619 24.603 77.2309 24.4 77.9839 24.252C79.0669 24.038 79.4709 24.413 79.4879 25.497C79.4899 25.649 79.4879 25.802 79.4879 26.102C79.8119 25.587 80.0939 25.182 80.3299 24.75C80.5099 24.423 80.7259 24.276 81.1179 24.29C81.9959 24.32 82.8759 24.299 83.8549 24.299C83.6809 24.602 83.5699 24.809 83.4449 25.009C81.9119 27.462 80.3229 29.883 78.8609 32.377C77.9489 33.933 77.2059 35.587 76.4379 37.221C76.2279 37.667 76.1519 38.195 76.1079 38.693C76.0529 39.34 76.3829 39.596 76.9689 39.29C77.6449 38.937 78.3329 38.513 78.8459 37.963C80.0209 36.703 81.1769 35.409 82.1859 34.018C84.3779 30.995 86.4799 27.907 88.5979 24.832C88.8659 24.442 89.1429 24.27 89.6239 24.295C90.4209 24.336 91.2209 24.306 92.1859 24.306C90.9159 26.272 89.7059 28.142 88.4959 30.012L88.5889 30.084C88.9829 29.636 89.3479 29.159 89.7759 28.746C91.0459 27.52 92.3079 26.279 93.6469 25.13C94.1109 24.733 94.7689 24.487 95.3799 24.348C96.5609 24.08 97.3649 24.758 97.4469 25.963C97.5229 27.076 97.2789 28.131 96.6959 29.066C95.8509 30.4111 94.9665 31.731 94.0439 33.024C93.1749 34.25 92.1969 35.4 91.3629 36.647C90.9969 37.193 90.7659 37.88 90.6629 38.533C90.5449 39.275 91.0529 39.643 91.7399 39.333C92.3759 39.047 93.0379 38.683 93.5019 38.184C94.6579 36.94 95.8519 35.692 96.7709 34.279C99.2239 30.501 101.541 26.636 103.911 22.804C103.979 22.694 104.037 22.577 104.101 22.458H97.7609C98.3189 21.738 99.1139 21.598 99.8749 21.543C101.291 21.44 102.715 21.418 104.135 21.419C104.625 21.419 104.885 21.256 105.131 20.849C106.469 18.64 107.861 16.462 109.179 14.241C109.522 13.661 109.904 13.455 110.557 13.5C111.365 13.554 112.179 13.513 113.143 13.513L108.239 21.445C112.096 21.167 115.942 22.113 119.429 19.971L119.57 20.138C119.333 20.41 119.132 20.731 118.85 20.946C117.775 21.764 116.509 22.142 115.188 22.201C112.904 22.305 110.614 22.318 108.327 22.33C107.843 22.332 107.577 22.483 107.327 22.89C104.995 26.693 102.606 30.462 100.314 34.287C99.6179 35.449 99.1259 36.74 98.6339 38.008C98.5009 38.353 98.5709 39.043 98.7999 39.192C99.0959 39.385 99.7149 39.322 100.07 39.135C100.686 38.811 101.302 38.387 101.75 37.864C102.896 36.524 104.055 35.174 105.019 33.704C106.931 30.786 108.722 27.789 110.543 24.813C110.769 24.443 111.011 24.298 111.445 24.313C112.353 24.346 113.262 24.323 114.312 24.323C114.138 24.63 114.022 24.851 113.891 25.063C111.994 28.122 110.066 31.163 108.212 34.247C107.511 35.415 106.935 36.664 106.399 37.917C106.232 38.307 106.382 38.831 106.387 39.293C106.866 39.23 107.431 39.308 107.81 39.08C109.747 37.92 111.191 36.232 112.483 34.43C114.756 31.2465 117.004 28.0451 119.226 24.826C119.499 24.432 119.774 24.272 120.251 24.296C121.044 24.336 121.839 24.306 122.775 24.306L119.061 30.121L119.144 30.189C119.478 29.802 119.787 29.389 120.154 29.033C121.516 27.712 122.871 26.381 124.288 25.118C124.699 24.752 125.283 24.525 125.827 24.373C127.138 24.007 128.052 24.732 128.102 26.089C128.141 27.133 127.913 28.129 127.366 29C126.467 30.4151 125.528 31.8046 124.551 33.167C123.707 34.357 122.766 35.478 121.949 36.684C121.601 37.196 121.379 37.828 121.243 38.437C121.079 39.177 121.618 39.643 122.309 39.336C123.005 39.026 123.699 38.614 124.247 38.094C126.008 36.425 127.466 34.523 128.554 32.338C130.032 29.367 132.204 26.988 135.003 25.177C135.864 24.618 136.858 24.2977 137.883 24.249C139.04 24.186 139.744 24.696 139.991 25.828C140.321 27.339 139.795 28.618 138.761 29.694C137.288 31.228 135.454 32.166 133.368 32.504C132.243 32.686 131.487 33.147 131.072 34.187C130.632 35.287 130.059 36.353 129.763 37.49C129.396 38.897 130.098 39.556 131.546 39.29C133.467 38.937 134.98 37.804 136.445 36.611C136.559 36.518 136.56 36.296 136.633 36.144C136.981 35.415 137.23 34.606 137.724 33.993C138.071 33.561 138.732 33.255 139.298 33.161C139.74 33.088 140.019 32.968 140.263 32.64C142.935 29.038 145.709 25.506 147.645 21.424C147.9 20.887 148.347 20.41 148.798 20.009C149.01 19.822 149.536 19.738 149.754 19.872C149.954 19.996 150.031 20.488 149.989 20.794C149.857 21.761 149.268 22.533 148.547 23.108C147.246 24.148 146.826 25.36 147.124 26.999C147.403 28.531 147.526 30.109 147.531 31.667C147.543 35.346 144.68 39.053 141.228 39.977C140.864 40.0769 140.494 40.1481 140.119 40.19C138.111 40.399 137.153 39.673 136.576 37.492C135.964 37.89 135.395 38.349 134.754 38.657C133.623 39.199 132.487 39.809 131.282 40.103C129.314 40.584 127.72 39.293 127.554 37.271C127.51 36.731 127.547 36.184 127.547 35.49C126.964 36.205 126.529 36.841 125.99 37.373C125.192 38.162 124.33 38.888 123.472 39.615C123.26 39.795 122.97 39.896 122.702 39.995C120.901 40.663 119.527 39.765 119.414 37.86C119.341 36.64 119.553 35.471 120.195 34.43C120.854 33.36 121.577 32.329 122.315 31.31C123.287 29.969 124.318 28.669 125.284 27.323C125.546 26.957 125.73 26.506 125.834 26.068C125.972 25.486 125.611 25.195 125.069 25.46C124.578 25.7 124.066 25.992 123.709 26.39C121.863 28.443 119.973 30.466 118.275 32.637C116.52 34.88 114.959 37.274 113.335 39.617C113.094 39.964 112.854 40.122 112.419 40.104C111.538 40.069 110.654 40.094 109.632 40.094L112.322 36L112.268 35.961C111.514 36.749 110.788 37.565 109.999 38.318C109.149 39.129 108.232 39.871 107.035 40.138C105.817 40.411 104.905 39.89 104.756 38.668C104.629 37.62 104.73 36.544 104.73 35.642C103.951 36.498 103.077 37.521 102.132 38.475C101.366 39.248 100.487 39.895 99.3799 40.134C97.9639 40.439 97.0159 39.867 96.8459 38.459C96.7269 37.475 96.8229 36.465 96.8229 35.661C96.0999 36.469 95.2529 37.485 94.3249 38.424C93.8123 38.9449 93.2265 39.3882 92.5859 39.74C90.7619 40.727 88.9179 40.24 88.7689 37.629C88.6962 36.4732 88.9875 35.3237 89.6019 34.342C90.2779 33.257 91.0309 32.218 91.7829 31.182C92.7309 29.878 93.7309 28.61 94.6669 27.297C94.9289 26.93 95.1039 26.477 95.2159 26.037C95.3439 25.535 95.0049 25.241 94.5229 25.433C94.1189 25.594 93.7269 25.834 93.3929 26.115C91.1549 27.995 89.3399 30.255 87.6369 32.602C85.9639 34.91 84.3439 37.256 82.7239 39.602C82.4659 39.975 82.1919 40.118 81.7439 40.102C80.8569 40.069 79.9689 40.092 78.9129 40.092L81.1659 36.756L81.0689 36.666C80.9079 36.842 80.7559 37.028 80.5829 37.191C79.7159 38.008 78.9109 38.911 77.9559 39.613C76.3859 40.767 74.9519 40.217 74.4949 38.344C74.3049 37.564 74.2769 36.744 74.1769 35.957C73.8919 36.33 73.5899 36.807 73.2069 37.207C72.3849 38.064 71.6049 38.997 70.6539 39.69C69.2819 40.69 67.9989 40.302 67.4219 38.711C67.0659 37.727 67.0489 36.621 66.8879 35.625C66.8789 35.637 66.7719 35.802 66.6479 35.954C65.8099 36.979 65.0479 38.084 64.0959 38.994C63.5219 39.544 62.6909 39.918 61.9079 40.14C60.8449 40.442 59.9029 39.846 59.7129 38.761C59.5329 37.737 59.5769 36.674 59.5289 35.745C58.9509 36.435 58.3059 37.301 57.5559 38.067C56.9279 38.708 56.2399 39.337 55.4699 39.787C53.6789 40.837 52.1469 39.961 52.0829 37.904C52.0619 37.204 52.1509 36.501 52.1959 35.689C52.0289 35.894 51.9149 36.036 51.7979 36.177C51.0939 37.028 50.4249 37.913 49.6709 38.718C49.2389 39.178 48.7079 39.578 48.1529 39.883C46.9049 40.569 45.7679 40.142 45.2379 38.823C45.0577 38.3504 44.9296 37.8595 44.8559 37.359C44.7799 36.893 44.7929 36.413 44.7689 35.977C43.9969 36.889 43.2429 37.868 42.3899 38.755C41.9099 39.254 41.3099 39.684 40.6889 39.993C39.6339 40.519 38.7249 40.203 38.1409 39.191C37.2429 37.635 37.4129 35.993 37.8949 34.379C38.5949 32.037 40.0779 30.159 41.7249 28.408C43.0649 26.981 44.5629 25.726 46.3779 24.928C47.0671 24.6308 47.7887 24.4153 48.5279 24.286C49.6229 24.089 49.9979 24.446 50.0119 25.543C50.0139 25.688 50.0119 25.833 50.0119 26.163C50.3739 25.577 50.6299 25.123 50.9269 24.698C51.0389 24.538 51.2439 24.342 51.4119 24.336C52.4049 24.302 53.3999 24.32 54.5019 24.32C54.3379 24.608 54.2309 24.815 54.1079 25.012C52.5789 27.468 50.9959 29.893 49.5379 32.39C48.6289 33.947 47.8819 35.6 47.1179 37.236C46.9009 37.701 46.8279 38.252 46.7829 38.772C46.7379 39.293 47.0909 39.582 47.5349 39.333C48.2179 38.953 48.9309 38.515 49.4239 37.93C50.4319 36.733 51.3889 35.475 52.2139 34.149C57.4439 25.75 62.6379 17.329 67.8239 8.90403C68.1299 8.40703 68.4519 8.19903 69.0399 8.23603C69.8779 8.28903 70.7219 8.25003 71.7039 8.25003C71.5269 8.56403 71.4129 8.78503 71.2819 8.99503C66.0999 17.371 60.9019 25.737 55.7479 34.13C55.0149 35.325 54.4539 36.635 53.9139 37.932C53.7549 38.314 53.9439 38.837 53.9719 39.295C54.4519 39.22 54.9919 39.256 55.3959 39.042C55.9099 38.768 56.3849 38.347 56.7529 37.892C57.7229 36.689 58.7239 35.495 59.5399 34.191C64.8039 25.7616 70.0449 17.3179 75.2629 8.86003C75.5429 8.40503 75.8429 8.22803 76.3729 8.25403C77.2349 8.29603 78.1009 8.26503 79.1109 8.26503V8.26403ZM34.8199 19.208L34.8329 18.966C34.2409 18.365 33.4899 18.237 32.6929 18.4C32.4629 18.448 32.2829 18.728 32.0799 18.901C32.2969 19.086 32.5149 19.43 32.7299 19.428C33.4279 19.423 34.1229 19.291 34.8199 19.208ZM45.7329 1.02804L42.0739 2.86104L42.5439 3.43804C45.6889 7.28103 45.4369 12.292 41.9379 15.841C40.5899 17.209 38.9999 18.214 37.2279 18.965C36.9659 19.075 36.7119 19.202 36.3899 19.351C37.6649 20.771 38.2919 22.423 38.3099 24.21C38.3249 25.622 38.1999 27.079 37.8409 28.442C36.5949 33.173 33.8469 36.851 29.3939 39.19C27.6739 40.094 25.8249 40.507 23.858 40.07C23.1589 39.9211 22.5262 39.5516 22.0529 39.016C21.5796 38.4804 21.2908 37.8071 21.229 37.095C21.041 35.052 21.8109 33.33 23.1339 31.841C24.7169 30.06 26.6709 28.798 29.0479 28.242C29.4409 28.15 29.8579 28.159 30.2639 28.12L30.3459 28.397C30.0909 28.499 29.8439 28.632 29.5799 28.697C28.1239 29.062 26.7839 29.652 25.6059 30.575C23.6899 32.075 22.576 34.015 22.264 36.394C22.2299 36.653 22.2239 36.923 22.2549 37.182C22.455 38.83 23.6309 39.604 25.2209 38.988C26.0979 38.648 26.9849 38.146 27.6509 37.504C31.6489 33.652 34.2539 29.039 35.2039 23.606C35.4199 22.373 35.3509 21.093 35.4089 19.927C34.3169 20.012 33.4089 20.143 32.5029 20.135C31.7169 20.128 31.1919 19.611 31.1469 19C31.1049 18.424 31.6119 17.91 32.3849 17.727C33.6229 17.435 34.6909 17.782 35.6219 18.553C39.7379 16.522 43.3819 6.91403 41.2049 3.72604C41.0009 3.89104 40.7969 4.04604 40.6059 4.21404C38.2099 6.33603 36.1759 8.76903 34.2999 11.327C31.5069 15.135 29.0129 19.123 26.7399 23.249C24.2209 27.819 21.26 32.084 17.278 35.582C14.82 37.742 12.068 39.427 8.74496 39.98C6.64496 40.33 4.52696 40.42 2.52296 39.505C0.890958 38.761 -0.0340414 37.499 0.000958569 35.708C0.0379586 33.859 1.01596 32.572 2.70896 31.788C2.82896 31.733 2.96296 31.673 3.09096 31.671C3.20796 31.669 3.32596 31.743 3.44296 31.783C3.39996 31.895 3.37996 32.025 3.30796 32.115C3.24396 32.195 3.12296 32.234 3.02596 32.289C1.44996 33.193 0.728958 34.924 1.21196 36.641C1.58496 37.969 2.85196 38.813 4.54196 38.996C7.46896 39.313 10.012 38.486 12.022 36.433C13.712 34.708 15.343 32.897 16.756 30.953C18.941 27.948 20.966 24.827 22.972 21.702C26.4439 16.294 30.3639 11.25 35.2899 7.02203C36.9559 5.59003 38.7609 4.31204 40.5989 2.89004C40.1919 2.62704 39.7949 2.32104 39.3549 2.09204C37.0379 0.883037 34.5209 0.480037 31.9659 0.792037C23.3109 1.84904 16.069 5.57404 10.393 12.082C8.85596 13.843 7.60295 15.817 6.79996 18.006C6.40421 19.0746 6.15201 20.1911 6.04996 21.326C5.78596 24.46 8.46495 26.254 11.432 25.723C13.553 25.343 15.332 24.296 16.93 22.938C17.658 22.318 18.298 21.603 19.006 20.961C19.153 20.828 19.425 20.826 19.639 20.764C19.627 20.96 19.695 21.221 19.591 21.344C17.262 24.085 14.569 26.332 10.749 26.594C6.45896 26.89 3.57196 23.732 4.17296 19.56C4.64696 16.275 6.27696 13.509 8.39095 11.005C11.91 6.83803 16.501 4.18704 21.614 2.32504C25.3209 0.972037 29.1399 0.0840375 33.1109 0.00403756C36.1209 -0.0559624 38.9659 0.544037 41.3779 2.38904C42.5339 1.86204 43.6589 1.32904 44.8049 0.841037C45.0649 0.731037 45.3949 0.781037 45.6939 0.757037L45.7329 1.02804Z" fill="#01172E"/>
<path fill-rule="evenodd" clip-rule="evenodd" d="M142.956 20.6884C141.61 20.4844 141.191 20.1834 141.15 19.4464C141.104 18.6334 141.941 17.7194 142.972 17.4804C143.656 17.3224 144.337 17.3024 144.884 17.7704C145.437 18.2404 145.544 18.8154 145.314 19.4444C144.705 21.1174 143.348 22.1764 141.503 22.8274C141.323 22.8904 141.103 22.8704 140.855 22.8214C141.6 22.1454 142.594 21.6754 142.956 20.6884ZM115.245 16.7834C115.25 15.6634 116.324 14.6134 117.441 14.6364C118.285 14.6534 118.894 15.2624 118.904 16.0984C118.916 17.1864 117.817 18.2954 116.727 18.2944C115.874 18.2934 115.241 17.6484 115.245 16.7844V16.7834Z" fill="#01172E"/>
</svg>
