<svg width="20" height="19" viewBox="0 0 20 19" fill="none" xmlns="http://www.w3.org/2000/svg">
<path d="M18.4444 18.3572L11.4444 11.9322C10.8889 12.3401 10.25 12.6631 9.52778 12.901C8.80556 13.139 8.03704 13.258 7.22222 13.258C5.2037 13.258 3.49556 12.6161 2.09778 11.3325C0.700001 10.0489 0.000741329 8.48102 5.8789e-07 6.62898C-0.000740153 4.77695 0.698519 3.20911 2.09778 1.92546C3.49704 0.641821 5.20519 0 7.22222 0C9.23926 0 10.9478 0.641821 12.3478 1.92546C13.7478 3.20911 14.4467 4.77695 14.4444 6.62898C14.4444 7.37687 14.3148 8.08226 14.0556 8.74516C13.7963 9.40805 13.4444 9.99446 13 10.5044L20 16.9294L18.4444 18.3572ZM7.22222 11.2183C8.61111 11.2183 9.79185 10.7723 10.7644 9.88024C11.737 8.98822 12.223 7.90446 12.2222 6.62898C12.2215 5.3535 11.7356 4.27008 10.7644 3.37874C9.79333 2.4874 8.61259 2.04105 7.22222 2.03969C5.83185 2.03833 4.65148 2.48468 3.68111 3.37874C2.71074 4.2728 2.22445 5.35622 2.22222 6.62898C2.22 7.90175 2.7063 8.9855 3.68111 9.88024C4.65593 10.775 5.8363 11.221 7.22222 11.2183Z" fill="#01172E"/>
</svg>
