<svg width="30" height="26" viewBox="0 0 30 26" fill="none" xmlns="http://www.w3.org/2000/svg">
<path d="M29.3379 3.97551C29.1659 3.20711 28.8302 2.50658 28.3644 1.94369C27.8985 1.38079 27.3188 0.975166 26.6829 0.767206C24.3548 0 14.985 0 14.985 0C14.985 0 5.6148 0.0232229 3.28672 0.790429C2.65079 0.998402 2.07105 1.40405 1.60522 1.96697C1.13939 2.52989 0.803734 3.23045 0.631674 3.99887C-0.0725178 8.99718 -0.345686 16.6135 0.65101 21.4118C0.823088 22.1802 1.15875 22.8807 1.62458 23.4436C2.09041 24.0065 2.67014 24.4122 3.30605 24.6201C5.63414 25.3873 15.0041 25.3873 15.0041 25.3873C15.0041 25.3873 24.374 25.3873 26.702 24.6201C27.3379 24.4122 27.9177 24.0066 28.3835 23.4437C28.8494 22.8808 29.1851 22.1802 29.3572 21.4118C30.0999 16.4064 30.3288 8.79483 29.3379 3.97551Z" fill="#FF0000"/>
<path d="M12.0027 18.1332L19.7756 12.693L12.0027 7.25293V18.1332Z" fill="white"/>
</svg>
